<?xml version="1.0" standalone="no"?>
<!DOCTYPE svg PUBLIC "-//W3C//DTD SVG 1.1//EN" "http://www.w3.org/Graphics/SVG/1.1/DTD/svg11.dtd" >
<svg xmlns="http://www.w3.org/2000/svg">
<metadata></metadata>
<defs>
<font id="freesansboldoblique" horiz-adv-x="1138" >
<font-face units-per-em="2048" ascent="1638" descent="-410" />
<missing-glyph horiz-adv-x="569" />
<glyph horiz-adv-x="0" />
<glyph unicode="&#xd;" horiz-adv-x="1228" />
<glyph unicode=" "  horiz-adv-x="569" />
<glyph unicode="&#x09;" horiz-adv-x="569" />
<glyph unicode="&#xa0;" horiz-adv-x="569" />
<glyph unicode="!" horiz-adv-x="681" d="M229 0l64 299h307l-63 -299h-308zM406 424l49 633l92 430h307l-92 -430l-219 -633h-137z" />
<glyph unicode="&#x22;" horiz-adv-x="970" d="M362 1227l58 266h282l-57 -266l-143 -264h-113zM845 1227l58 266h282l-57 -266l-143 -264h-113z" />
<glyph unicode="#" d="M68 -66l170 418h-158l43 205h199l127 311h-203l45 205h241l146 354h217l-147 -354h210l146 354h217l-147 -354h178l-43 -205h-217l-127 -311h202l-43 -205h-243l-172 -418h-215l170 418h-209l-172 -418h-215zM537 557h211l126 311h-208z" />
<glyph unicode="$" d="M121 303q0 53 16 121h266q-2 -39 -2 -68q0 -154 134 -180l94 436q-338 86 -338 361q0 41 10 90t44 115.5t87 120t150.5 97.5t224.5 56l22 111h140l-25 -111q342 -29 342 -332q0 -43 -10 -100h-262q6 57 6 82q0 123 -119 143l-88 -411q76 -23 132 -48.5t112.5 -66.5 t86.5 -100.5t30 -133.5q0 -49 -10.5 -102t-45.5 -126t-91 -131t-160.5 -106.5t-239.5 -62.5l-45 -215h-140l47 215q-178 18 -273 107.5t-95 238.5zM557 1026q0 -102 127 -152l78 371q-66 -12 -111 -41.5t-63.5 -66.5t-24.5 -62.5t-6 -48.5zM674 176q98 23 152.5 83t54.5 147 q0 123 -121 172z" />
<glyph unicode="%" horiz-adv-x="1820" d="M264 987q0 174 140.5 311.5t316.5 137.5q137 0 225 -84t88 -211q0 -176 -140 -313.5t-321 -137.5q-133 0 -221 85t-88 212zM422 -41l1126 1493h158l-1128 -1493h-156zM469 1026q0 -57 43 -96t106 -39q84 0 147.5 62.5t63.5 144.5q0 59 -44 98t-107 39q-82 0 -145.5 -63.5 t-63.5 -145.5zM1079 256q0 174 140.5 311.5t316.5 137.5q137 0 225 -84t88 -211q0 -176 -140 -313.5t-320 -137.5q-133 0 -221.5 85t-88.5 212zM1284 295q0 -57 43 -96t107 -39q84 0 147.5 62.5t63.5 144.5q0 59 -44.5 98t-107.5 39q-82 0 -145.5 -63.5t-63.5 -145.5z" />
<glyph unicode="&#x26;" horiz-adv-x="1478" d="M182 319q0 158 99.5 277t330.5 225q-109 154 -108 250q0 164 138 287t323 123q139 0 226 -66.5t87 -175.5q0 -74 -28.5 -142.5t-59.5 -109.5t-91.5 -87t-77.5 -57.5t-69 -39.5l168 -281q51 47 79 100.5t44 141.5h232q-16 -113 -84 -233.5t-158 -202.5l192 -328h-327 l-76 123q-141 -102 -228 -136t-206 -34q-190 0 -298 97t-108 269zM463 383q0 -80 53 -136.5t129 -56.5q51 0 108.5 26t159.5 95l-202 342l-107 -59q-141 -80 -141 -211zM784 1130q0 -27 12.5 -54t61.5 -113q164 86 164 213q0 39 -27.5 61.5t-76.5 22.5q-59 0 -96.5 -36 t-37.5 -94z" />
<glyph unicode="'" horiz-adv-x="487" d="M362 1227l58 266h282l-57 -266l-143 -264h-113z" />
<glyph unicode="(" horiz-adv-x="681" d="M172 250q0 309 134 608t427 635h205q-264 -360 -393 -647t-129 -617q0 -141 25.5 -279t93.5 -360h-205q-158 362 -158 660z" />
<glyph unicode=")" horiz-adv-x="681" d="M-43 -410q264 360 393 647t129 617q0 141 -25.5 279t-93.5 360h205q158 -362 158 -660q0 -309 -134 -608t-427 -635h-205z" />
<glyph unicode="*" horiz-adv-x="796" d="M297 1188l76 141l207 -74l49 238h147l-51 -238l240 74l14 -143l-238 -72l97 -192l-138 -88l-96 192l-178 -192l-100 88l178 192z" />
<glyph unicode="+" horiz-adv-x="1196" d="M178 352l51 246h373l80 371h244l-80 -371h375l-52 -246h-374l-80 -372h-244l80 372h-373z" />
<glyph unicode="," horiz-adv-x="569" d="M55 -356l25 114q188 33 227 242h-176l64 299h307l-60 -281q-29 -168 -123 -259t-264 -115z" />
<glyph unicode="-" horiz-adv-x="681" d="M143 424l60 276h557l-60 -276h-557z" />
<glyph unicode="." horiz-adv-x="569" d="M131 0l64 299h307l-64 -299h-307z" />
<glyph unicode="/" horiz-adv-x="569" d="M-2 -29l739 1491h137l-739 -1491h-137z" />
<glyph unicode="0" d="M166 360q0 47 6 118t24.5 180.5t49 217t85 220t124 196.5t175 137.5t232.5 53.5q184 0 289.5 -108.5t105.5 -297.5q0 -49 -6 -118.5t-24.5 -180t-49 -218t-85 -220.5t-125 -197t-178 -137t-234.5 -53q-180 0 -284.5 109.5t-104.5 297.5zM459 375q0 -78 42 -125t113 -47 q90 0 147.5 65.5t100.5 216.5q41 145 72 322.5t31 273.5q0 78 -43 125t-115 47q-106 0 -180 -116q-51 -82 -109.5 -347.5t-58.5 -414.5z" />
<glyph unicode="1" d="M352 1001l41 191q377 0 500 260h190l-309 -1452h-287l213 1001h-348z" />
<glyph unicode="2" d="M61 0q43 160 114 271.5t159 177t176 114.5t192.5 117t180.5 147q111 111 110 263q0 78 -47 120.5t-129 42.5q-106 0 -172.5 -78.5t-87.5 -228.5h-274q39 258 190.5 397.5t388.5 139.5q199 0 311.5 -93.5t112.5 -259.5q0 -137 -66.5 -254.5t-171 -200.5t-212 -150.5 t-208 -138.5t-141.5 -130h615l-53 -256h-988z" />
<glyph unicode="3" d="M137 309q0 47 13 117h278v-66q2 -76 50 -116.5t136 -40.5q102 0 176 79.5t74 188.5t-64.5 143.5t-217.5 34.5l41 193h24q137 0 221 73.5t84 194.5q0 63 -44 103t-113 40q-33 0 -60.5 -6t-48 -19.5t-38 -27.5t-31 -35.5t-21.5 -37t-16.5 -40t-11.5 -36t-8 -33t-5 -23.5 h-264q47 250 182 369t373 119q195 0 302 -81t107 -228q0 -244 -245 -396q147 -90 147 -252q0 -248 -164 -410.5t-436 -162.5q-199 0 -309.5 93t-110.5 263z" />
<glyph unicode="4" d="M117 322l51 241l721 889h338l-191 -893h152l-51 -237h-150l-69 -322h-287l69 322h-583zM373 559h377l133 623z" />
<glyph unicode="5" d="M121 289q0 39 10 90h283q-4 -37 -4 -45q0 -59 49 -95t131 -36q125 0 207 103.5t82 258.5q0 90 -48.5 138.5t-136.5 48.5q-137 0 -207 -109h-258l299 809h785l-56 -256h-606l-110 -303q133 88 270 88q168 0 264 -98.5t96 -268.5q0 -51 -14 -122.5t-58 -169t-110.5 -177 t-186.5 -136t-272 -56.5q-184 0 -296.5 92t-112.5 244z" />
<glyph unicode="6" d="M174 350q0 57 7 135t29.5 188.5t55.5 218t91.5 216.5t132 190.5t182 133t235.5 51.5q174 0 273.5 -84t99.5 -230q0 -29 -2 -47h-266q-14 70 -52 100.5t-112 30.5q-127 0 -190.5 -92t-125.5 -319q152 115 306 114q162 0 253 -91t91 -251q0 -55 -15.5 -130.5t-58.5 -171 t-107.5 -173.5t-174 -132t-244.5 -54q-186 0 -297 108.5t-111 288.5zM440 385q0 -80 49.5 -131t126.5 -51q113 0 193 102.5t80 245.5q0 78 -46 127t-122 49q-113 0 -197 -101.5t-84 -240.5z" />
<glyph unicode="7" d="M268 0q123 373 294 640t470 556h-723l56 256h1026l-48 -225q-268 -276 -372 -406q-283 -358 -412 -821h-291z" />
<glyph unicode="8" d="M123 317q0 305 330 474q-72 55 -103 106t-31 117q0 193 161 331t384 138q180 0 293 -88.5t113 -227.5q0 -225 -264 -376q94 -57 133 -119t39 -154t-39 -188.5t-112 -182.5t-193.5 -140t-268.5 -54q-205 0 -323.5 98.5t-118.5 265.5zM416 369q0 -72 54 -119t138 -47 q121 0 199 85t78 218q0 78 -50.5 124t-134.5 46q-119 0 -201.5 -89t-82.5 -218zM569 1024q0 -70 48.5 -112t125.5 -42q109 0 185 69t76 167q0 66 -52.5 106.5t-136.5 40.5q-102 0 -174 -66.5t-72 -162.5z" />
<glyph unicode="9" d="M139 270q0 25 8 68h277v-25q0 -49 44 -79.5t116 -30.5q106 0 182 83t127 310q-86 -74 -150.5 -101.5t-150.5 -27.5q-160 0 -253 96t-93 262q0 274 174 466t426 192q184 0 294.5 -115t110.5 -305q0 -63 -12 -155.5t-40 -223.5t-83 -255t-133 -233.5t-202 -176t-273 -66.5 q-164 0 -266.5 88t-102.5 229zM526 883q0 -82 44 -130t120 -48q123 0 209 104t86 254q0 88 -51 139t-137 51q-113 0 -192 -107.5t-79 -262.5z" />
<glyph unicode=":" horiz-adv-x="681" d="M231 0l64 299h307l-64 -299h-307zM395 766l64 299h307l-64 -299h-307z" />
<glyph unicode=";" horiz-adv-x="681" d="M155 -356l25 114q188 33 227 242h-176l64 299h307l-60 -281q-29 -168 -123 -259t-264 -115zM395 766l64 299h307l-64 -299h-307z" />
<glyph unicode="&#x3c;" horiz-adv-x="1196" d="M158 352l53 248l1079 371l-55 -264l-696 -232l598 -227l-58 -268z" />
<glyph unicode="=" horiz-adv-x="1196" d="M125 106l51 246h993l-51 -246h-993zM229 598l52 246h993l-51 -246h-994z" />
<glyph unicode="&#x3e;" horiz-adv-x="1196" d="M78 -21l55 264l696 232l-598 227l58 268l921 -372l-53 -248z" />
<glyph unicode="?" horiz-adv-x="1251" d="M344 985q12 59 25.5 104.5t58.5 134.5t102.5 147.5t164 105.5t239.5 47q125 0 217 -36t138 -93.5t66.5 -115.5t20.5 -120q0 -63 -16.5 -123.5t-33.5 -102.5t-57 -87t-59.5 -66.5t-69.5 -56.5t-56.5 -38t-49.5 -30q-104 -66 -135 -104.5t-51 -138.5h-250 q10 109 64.5 192.5t123 136t137 100.5t114.5 110.5t46 140t-52 128t-134 50.5q-104 0 -176 -75t-98 -210h-279zM485 0l64 299h307l-63 -299h-308z" />
<glyph unicode="@" horiz-adv-x="1996" d="M150 371q0 207 93 412.5t250.5 370.5t390 268.5t488.5 103.5q326 0 534 -182.5t208 -444.5q0 -166 -67 -317.5t-168 -251t-217 -157.5t-218 -58q-174 0 -221 143q-154 -150 -326 -149q-125 0 -203 77.5t-78 200.5q0 135 95.5 292t254 269.5t316.5 112.5q78 0 123 -33 t76 -108l55 120h184l-278 -573q-39 -76 -39 -111q0 -33 22.5 -52t57.5 -19q33 0 86 24.5t114.5 75.5t114.5 118.5t89 165t36 201.5q0 197 -167 341.5t-443 144.5q-156 0 -292 -42t-231.5 -109.5t-173 -157t-125 -179.5t-80 -182t-45 -162.5t-12.5 -122.5q0 -225 174 -368.5 t447 -143.5q172 0 434 84l25 -161q-225 -92 -506 -93q-180 0 -321.5 45.5t-224.5 114t-138.5 158.5t-74.5 172t-19 162zM821 440q0 -72 38 -116.5t99 -44.5q135 0 275.5 172t140.5 319q0 63 -40 103t-103 40q-131 0 -270.5 -159.5t-139.5 -313.5z" />
<glyph unicode="A" horiz-adv-x="1478" d="M53 0l834 1493h354l199 -1493h-314l-36 301h-558l-165 -301h-314zM674 557h387l-72 580z" />
<glyph unicode="B" horiz-adv-x="1478" d="M168 0l317 1493h666q117 0 202 -30.5t128 -81t61.5 -102.5t18.5 -110q0 -217 -240 -374q78 -61 111.5 -125t33.5 -148q0 -43 -12 -98t-53 -133t-105.5 -140.5t-183.5 -106.5t-272 -44h-672zM530 256h365q145 0 206.5 72.5t61.5 173.5q0 141 -186 141h-365zM666 899h335 q143 0 198.5 64.5t55.5 146.5q0 66 -44 96.5t-138 30.5h-336z" />
<glyph unicode="C" horiz-adv-x="1478" d="M219 481q0 285 112.5 522.5t313.5 376t447 138.5q238 0 385 -119t147 -309q0 -27 -8 -103h-289q0 268 -270 268q-109 0 -197 -42t-143 -111.5t-95 -148.5t-60.5 -163.5t-29 -145t-8.5 -103.5q0 -326 301 -326q147 0 252 77t150 218h293q-68 -262 -262.5 -409.5 t-475.5 -147.5q-262 0 -412.5 141t-150.5 387z" />
<glyph unicode="D" horiz-adv-x="1478" d="M158 0l317 1493h584q279 0 404.5 -122t125.5 -390q0 -59 -8 -130t-31.5 -168t-61.5 -188.5t-104.5 -182.5t-152.5 -159.5t-212 -110.5t-278 -42h-583zM520 256h275q123 0 217 59.5t143 141.5t81 188.5t40 180t8 135.5q0 276 -280 276h-277z" />
<glyph unicode="E" horiz-adv-x="1366" d="M162 0l317 1493h1082l-56 -256h-774l-72 -338h715l-53 -256h-715l-82 -387h809l-55 -256h-1116z" />
<glyph unicode="F" horiz-adv-x="1251" d="M152 0l317 1493h1049l-56 -256h-741l-72 -338h656l-56 -256h-653l-137 -643h-307z" />
<glyph unicode="G" horiz-adv-x="1593" d="M219 537q0 164 59.5 332.5t169 315t285.5 240t387 93.5q250 0 403.5 -120t153.5 -315q0 -10 -4 -67h-282q-12 115 -97.5 177t-230.5 62q-123 0 -221.5 -51t-155.5 -128t-95 -172t-52.5 -175t-14.5 -147q0 -158 99.5 -262.5t248.5 -104.5q98 0 181.5 36t135.5 93 t81.5 107.5t44.5 95.5h-340l55 256h598l-172 -807h-184l14 184q-115 -121 -224.5 -174t-252.5 -53q-270 0 -430 157.5t-160 426.5z" />
<glyph unicode="H" horiz-adv-x="1478" d="M139 0l318 1493h307l-119 -559h590l119 559h309l-317 -1493h-308l144 678h-592l-144 -678h-307z" />
<glyph unicode="I" horiz-adv-x="569" d="M129 0l317 1493h308l-318 -1493h-307z" />
<glyph unicode="J" d="M121 272q0 70 14 134l31 147h307l-33 -158q-8 -35 -8 -69q0 -49 38 -80t97 -31q166 0 203 174l236 1104h307l-236 -1104q-92 -436 -571 -436q-180 0 -282.5 85t-102.5 234z" />
<glyph unicode="K" horiz-adv-x="1478" d="M152 0l317 1493h307l-139 -655l725 655h364l-739 -653l481 -840h-366l-354 643l-187 -164l-102 -479h-307z" />
<glyph unicode="L" horiz-adv-x="1251" d="M164 0l317 1493h307l-262 -1237h715l-55 -256h-1022z" />
<glyph unicode="M" horiz-adv-x="1705" d="M135 0l318 1493h444l41 -1147l520 1147h449l-318 -1493h-291l271 1268l-551 -1268h-307l-15 1268l-270 -1268h-291z" />
<glyph unicode="N" horiz-adv-x="1478" d="M139 0l318 1493h307l393 -1055l223 1055h291l-317 -1493h-303l-394 1071l-227 -1071h-291z" />
<glyph unicode="O" horiz-adv-x="1593" d="M217 535q0 121 34 253t107.5 263t175 234.5t250 168t318.5 64.5q281 0 437.5 -155t156.5 -431q0 -127 -34 -259t-107.5 -262t-175 -231.5t-250 -164t-320.5 -62.5q-274 0 -433 156.5t-159 425.5zM522 578q0 -168 90 -265.5t246 -97.5q106 0 194.5 40t143.5 106.5 t96 142.5t60.5 155.5t29 137t9.5 98.5q0 170 -87 265t-241 95q-106 0 -195.5 -39.5t-145.5 -105.5t-97 -140.5t-62.5 -154.5t-31 -138.5t-9.5 -98.5z" />
<glyph unicode="P" horiz-adv-x="1366" d="M156 0l317 1493h631q121 0 209 -33t133 -87t64.5 -109.5t19.5 -116.5q0 -70 -19.5 -147.5t-63.5 -161.5t-107.5 -152t-163 -111t-218.5 -43h-383l-112 -532h-307zM631 788h313q80 0 138.5 28t87 74t42 92t13.5 93q0 72 -51.5 117t-133.5 45h-315z" />
<glyph unicode="Q" horiz-adv-x="1593" d="M223 537q0 156 56.5 322.5t161 316t277.5 246t384 96.5q281 0 440.5 -158t159.5 -432q0 -188 -83 -390t-214 -327l131 -156l-190 -166l-142 166q-184 -102 -391 -102q-272 0 -431 157.5t-159 426.5zM528 578q0 -168 88.5 -265.5t239.5 -97.5q100 0 182 39l-127 149 l193 166l133 -159q72 90 116 224t44 259q0 170 -89 266t-247 96q-164 0 -290 -109.5t-184.5 -261t-58.5 -306.5z" />
<glyph unicode="R" horiz-adv-x="1478" d="M164 0l317 1493h772q100 0 174 -31.5t111 -81t53.5 -98.5t16.5 -96q0 -84 -28 -158t-62.5 -120t-91 -89t-86 -59.5t-74.5 -38.5q159 -53 159 -167q1 -72 -31 -232q-32 -162 -32 -197q0 -41 37 -70l-13 -55h-325q-17 51 -17 84q0 70 39 217.5t39 177.5q0 113 -174 113 h-352l-125 -592h-307zM651 848h371q82 0 140.5 25.5t87 66.5t41 79t12.5 75q0 143 -226 143h-344z" />
<glyph unicode="S" horiz-adv-x="1366" d="M156 356q0 35 8 90h299q-4 -37 -4 -47q0 -88 76.5 -136t216.5 -48q160 0 255 62.5t95 164.5q0 72 -53.5 109t-192.5 65l-201 41q-182 37 -264 110t-82 200q0 236 180.5 393.5t479.5 157.5q244 0 380 -93.5t136 -259.5q0 -51 -17 -127h-286q4 37 4 47q0 170 -271 170 q-139 0 -220 -57t-81 -156q0 -57 51.5 -88.5t196.5 -60.5l223 -45q158 -31 240 -108.5t82 -196.5q0 -74 -18.5 -147.5t-67.5 -155.5t-125 -143.5t-203 -102.5t-286 -41q-158 0 -271.5 38t-171 100.5t-83 128t-25.5 136.5z" />
<glyph unicode="T" horiz-adv-x="1251" d="M291 1237l55 256h1196l-55 -256h-434l-265 -1237h-307l264 1237h-454z" />
<glyph unicode="U" horiz-adv-x="1478" d="M244 342q0 74 22 180l207 971h307l-215 -1012q-10 -55 -10 -92q0 -82 66.5 -128t185.5 -46q139 0 219 64.5t109 201.5l215 1012h307l-215 -1012q-59 -272 -251 -400t-441 -128q-231 0 -368.5 105.5t-137.5 283.5z" />
<glyph unicode="V" horiz-adv-x="1366" d="M367 1493h309l92 -1124l565 1124h309l-823 -1493h-260z" />
<glyph unicode="W" horiz-adv-x="1933" d="M344 1493h326l-6 -1118l458 1118h324l-6 -1122l461 1122h325l-731 -1493h-276l-9 1137l-485 -1137h-276z" />
<glyph unicode="X" horiz-adv-x="1366" d="M45 0l635 752l-297 741h365l161 -483l375 483h358l-620 -731l319 -762h-366l-184 510l-388 -510h-358z" />
<glyph unicode="Y" horiz-adv-x="1366" d="M373 1493h342l168 -645l424 645h342l-672 -940l-119 -553h-307l119 553z" />
<glyph unicode="Z" horiz-adv-x="1251" d="M61 0l56 256l970 981h-763l55 256h1122l-55 -256l-971 -981h764l-55 -256h-1123z" />
<glyph unicode="[" horiz-adv-x="681" d="M47 -410l404 1903h497l-45 -205h-231l-316 -1493h232l-43 -205h-498z" />
<glyph unicode="\" horiz-adv-x="569" d="M283 1452h151l150 -1499h-154z" />
<glyph unicode="]" horiz-adv-x="681" d="M-51 -410l45 205h231l316 1493h-232l43 205h498l-404 -1903h-497z" />
<glyph unicode="^" horiz-adv-x="1196" d="M244 553l522 870h256l166 -870h-232l-118 614l-365 -614h-229z" />
<glyph unicode="_" d="M-133 -410l35 164h1228l-34 -164h-1229z" />
<glyph unicode="`" horiz-adv-x="681" d="M358 1550h244l92 -307h-129z" />
<glyph unicode="a" d="M102 221q0 31 8.5 71t36 95t70.5 102.5t121 89.5t178 58l119 18q8 2 34.5 5.5t39 5.5t38 7t38 10t33 12t31.5 17.5t22.5 25t16.5 31.5t5 38q0 88 -150 88q-98 0 -150 -35t-79 -119h-268q43 201 173 292t372 91q117 0 199.5 -23.5t121.5 -63.5t55.5 -78.5t16.5 -81.5 q0 -37 -13 -93l-129 -614q-6 -29 -6 -43q0 -43 43 -92l-8 -35h-313q-14 31 -14.5 55.5t6.5 55.5q-176 -158 -342 -158q-137 0 -221.5 73.5t-84.5 194.5zM395 285q0 -102 150 -103q104 0 174.5 67.5t99.5 194.5l17 78q-25 -14 -97 -28l-135 -23q-100 -16 -154.5 -65.5 t-54.5 -120.5z" />
<glyph unicode="b" horiz-adv-x="1251" d="M121 0l317 1493h287l-113 -530q134 161 337 161h3q162 0 260.5 -115.5t98.5 -308.5q0 -291 -185.5 -519t-423.5 -228q-205 0 -270 160l-24 -113h-287zM508 414q0 -104 49 -168t131 -64q131 0 230.5 142.5t99.5 328.5q0 113 -48 177.5t-132 64.5q-131 0 -230.5 -144.5 t-99.5 -336.5z" />
<glyph unicode="c" d="M158 352.5q0 67.5 14 152.5t59 197.5t114 203.5t191.5 154.5t278.5 63.5q186 0 297 -98t111 -246q0 -23 -9 -88h-274q-2 102 -32.5 152.5t-135.5 50.5q-90 0 -157.5 -55.5t-100.5 -140.5t-48 -162.5t-15 -143.5q0 -211 182 -211q84 0 139 46t102 155h275 q-63 -205 -207.5 -317.5t-343.5 -112.5q-125 0 -216 39t-137 102.5t-66.5 127t-20.5 131z" />
<glyph unicode="d" horiz-adv-x="1251" d="M162 379q0 131 44 263t119.5 239.5t191.5 175t245 67.5q203 0 272 -161l113 530h287l-318 -1493h-287l25 113q-139 -160 -340 -160q-160 0 -256 116.5t-96 309.5zM455 422q0 -111 48 -175.5t130 -64.5q131 0 228 143.5t97 336.5q0 106 -48 169.5t-132 63.5 q-127 0 -225 -143.5t-98 -329.5z" />
<glyph unicode="e" d="M131 379q0 49 10.5 112.5t35 152.5t72.5 170t115.5 152.5t174 114.5t237.5 43q195 0 314.5 -112.5t119.5 -292.5q0 -117 -36 -256h-744q-6 -57 -6 -92q0 -84 53 -136.5t141 -52.5q74 0 136.5 35t93.5 94h282q-84 -170 -232 -264t-335 -94q-193 0 -312.5 117.5 t-119.5 308.5zM467 653h451q0 57 -5.5 93t-22 74t-53.5 56.5t-96 18.5q-207 0 -274 -242z" />
<glyph unicode="f" horiz-adv-x="681" d="M184 0l191 893h-158l41 190h156l28 134q31 143 116 209.5t235 66.5q29 0 157 -6l-45 -215q-74 8 -86 8q-74 0 -94 -88l-25 -109h170l-41 -190h-167l-191 -893h-287z" />
<glyph unicode="g" horiz-adv-x="1251" d="M53 -197q0 27 6 64h295q-2 -14 -2 -25q0 -45 50.5 -74.5t125.5 -29.5q113 0 195 62.5t104 162.5l33 150q-98 -90 -172 -125t-168 -35q-156 0 -257 110.5t-101 278.5q0 109 26.5 220.5t80 211.5t126 179t171 125t208.5 46q178 0 260 -188l37 170h272l-243 -1143 q-41 -195 -203 -302t-416 -107q-231 0 -329.5 74.5t-98.5 174.5zM455 412q0 -106 46 -168t126 -62q137 0 237.5 138.5t100.5 324.5q0 115 -51.5 182.5t-137.5 67.5q-125 0 -223 -147.5t-98 -335.5z" />
<glyph unicode="h" horiz-adv-x="1251" d="M137 0l318 1493h286l-118 -555q158 186 368 186q133 0 215 -74.5t82 -195.5q0 -55 -12 -113l-158 -741h-287l138 641q12 63 12 98q0 156 -150 156q-98 0 -172.5 -73.5t-101.5 -198.5l-133 -623h-287z" />
<glyph unicode="i" horiz-adv-x="569" d="M137 0l236 1106h286l-235 -1106h-287zM399 1237l56 256h286l-55 -256h-287z" />
<glyph unicode="j" horiz-adv-x="569" d="M-88 -436l49 227q10 -8 51 -8q47 0 70.5 20.5t34.5 69.5l262 1233h287l-277 -1299q-29 -133 -120 -193t-265 -60q-57 0 -92 10zM406 1237l55 256h287l-56 -256h-286z" />
<glyph unicode="k" d="M121 0l317 1493h287l-174 -817l457 430h325l-475 -422l264 -684h-336l-161 489l-140 -127l-77 -362h-287z" />
<glyph unicode="l" horiz-adv-x="569" d="M137 0l318 1493h286l-317 -1493h-287z" />
<glyph unicode="m" horiz-adv-x="1820" d="M123 0l235 1106h285l-35 -166q90 100 170 142t180 42q94 0 163 -45t91 -123q162 168 363 168q137 0 214 -68.5t77 -189.5q0 -45 -17 -125l-157 -741h-287l147 696q10 47 11 84q0 115 -119 115q-96 0 -163 -60.5t-89 -170.5l-141 -664h-287l151 709q6 33 7 67q0 53 -35 86 t-94 33q-90 0 -155 -62.5t-87 -168.5l-141 -664h-287z" />
<glyph unicode="n" horiz-adv-x="1251" d="M129 0l236 1106h286l-37 -168q82 98 170 142t203 44q137 0 219 -73.5t82 -196.5q0 -55 -12 -113l-158 -741h-287l138 641q12 68 12 100q0 154 -152 154q-102 0 -176.5 -72.5t-103.5 -199.5l-133 -623h-287z" />
<glyph unicode="o" horiz-adv-x="1251" d="M168 362q0 317 187.5 539.5t490.5 222.5q211 0 331.5 -109.5t120.5 -299.5q0 -324 -190 -543t-496 -219q-203 0 -323.5 111.5t-120.5 297.5zM461 420q0 -109 55.5 -173.5t147.5 -64.5q96 0 167.5 56.5t106.5 139.5t51.5 154.5t16.5 122.5q0 109 -55.5 174.5t-149.5 65.5 q-139 0 -239.5 -140.5t-100.5 -334.5z" />
<glyph unicode="p" horiz-adv-x="1251" d="M23 -446l329 1552h287l-35 -164q141 182 346 182q164 0 259.5 -114.5t95.5 -309.5q0 -309 -176.5 -529t-423.5 -220q-209 0 -273 180l-123 -577h-286zM504 412q0 -104 49 -168t131 -64q133 0 230.5 143.5t97.5 338.5q0 106 -49.5 169.5t-131.5 63.5q-131 0 -229 -144.5 t-98 -338.5z" />
<glyph unicode="q" horiz-adv-x="1251" d="M147 369q0 180 72 351t215.5 287.5t321.5 116.5q211 0 272 -182l35 164h287l-330 -1552h-287l123 577q-137 -180 -348 -180q-164 0 -262.5 114.5t-98.5 303.5zM440 414q0 -106 50.5 -170t132.5 -64q133 0 232 144.5t99 339.5q0 106 -49 168.5t-133 62.5 q-133 0 -232.5 -144.5t-99.5 -336.5z" />
<glyph unicode="r" horiz-adv-x="796" d="M129 0l236 1106h286l-47 -217q72 113 166 174t193 61q18 0 34 -2l-61 -291q-49 8 -88 9q-254 0 -307 -252l-125 -588h-287z" />
<glyph unicode="s" d="M123 260q0 20 8 62h281q8 -139 217 -140q94 0 153.5 32t59.5 81q0 35 -30 55.5t-126 50.5l-162 52q-135 45 -199.5 106.5t-64.5 147.5q0 180 148.5 298.5t384.5 118.5q193 0 303 -78.5t110 -218.5q0 -33 -10 -77h-276q6 29 6 38q0 49 -48.5 78t-132.5 29 q-82 0 -131 -29.5t-49 -79.5q0 -31 28 -50t105 -42l197 -57q250 -76 250 -254q0 -197 -154.5 -313.5t-415.5 -116.5q-129 0 -223 30.5t-140 81t-67.5 98.5t-21.5 97z" />
<glyph unicode="t" horiz-adv-x="681" d="M207 129q0 37 10 84l143 680h-141l41 190h141l64 297h287l-64 -297h160l-41 -190h-160l-127 -602q-12 -53 -12 -70q0 -51 78 -51q25 0 67 6l-41 -201q-77 -22 -166 -22h-8q-113 0 -172 46t-59 130z" />
<glyph unicode="u" horiz-adv-x="1251" d="M180 223q0 55 13 113l163 770h287l-143 -670q-12 -72 -13 -100q0 -154 156 -154q100 0 174 74t101 199l139 651h286l-235 -1106h-287l31 139q-82 -98 -170 -142t-203 -44q-135 0 -217 73.5t-82 196.5z" />
<glyph unicode="v" d="M264 1106h303l62 -809l401 809h303l-616 -1106h-301z" />
<glyph unicode="w" horiz-adv-x="1593" d="M246 1106h297l10 -774l326 774h295v-774l333 774h297l-540 -1106h-297l-11 778l-340 -778h-294z" />
<glyph unicode="x" d="M33 0l477 561l-227 545h344l104 -334l252 334h344l-485 -545l252 -561h-344l-121 344l-252 -344h-344z" />
<glyph unicode="y" d="M76 -440l47 223q23 -4 57 -4q106 0 169 51t63 139q-27 219 -83.5 613.5t-74.5 523.5h315l74 -805l399 805h295l-733 -1307q-51 -96 -90 -135q-117 -113 -348 -113q-55 0 -90 9z" />
<glyph unicode="z" horiz-adv-x="1024" d="M43 0l49 231l684 643h-510l49 232h863l-50 -232l-679 -643h561l-49 -231h-918z" />
<glyph unicode="{" horiz-adv-x="796" d="M172 457l41 188h33q131 0 160 129l92 432q29 137 110.5 212t202.5 75h156l-43 -203h-76q-57 0 -80 -22.5t-37 -93.5l-84 -400q-25 -111 -80 -161t-168 -62q47 -8 75 -16.5t57.5 -40t29.5 -84.5q0 -33 -10 -84l-86 -400q-10 -57 -10 -82q0 -51 80 -51h71l-43 -203h-157 q-88 0 -143.5 57.5t-55.5 149.5q0 45 8 80l92 430q10 51 10 70q0 78 -110 78h-27z" />
<glyph unicode="|" horiz-adv-x="573" d="M117 -410l405 1903h164l-405 -1903h-164z" />
<glyph unicode="}" horiz-adv-x="796" d="M63 -410l43 203h76q57 0 80 22.5t37 93.5l84 400q25 111 80 161t168 62q-47 8 -75 16.5t-57.5 40t-29.5 84.5q0 33 10 84l86 400q10 57 10 82q0 51 -80 51h-71l43 203h157q88 0 143.5 -57.5t55.5 -149.5q0 -45 -8 -80l-92 -430q-10 -51 -10 -70q0 -78 110 -78h27l8 -2 l-41 -188h-33q-131 0 -160 -129l-92 -432q-29 -137 -110.5 -212t-202.5 -75h-156z" />
<glyph unicode="~" horiz-adv-x="1196" d="M199 346q80 297 325 297q96 0 156 -51l100 -86q57 -51 114.5 -51t86 28.5t51.5 106.5h158q-35 -145 -118 -222t-206 -77q-96 0 -157 53l-99 86q-57 49 -114 49q-59 0 -88 -28.5t-50 -104.5h-159z" />
<glyph unicode="&#xa1;" horiz-adv-x="681" d="M53 -381l92 430l219 633h137l-49 -633l-92 -430h-307zM307 807l63 299h308l-64 -299h-307z" />
<glyph unicode="&#xa2;" d="M162 352q0 45 9 107.5t31.5 150.5t66.5 170t106.5 157t160 125t218.5 60l39 176h135l-39 -178q84 -10 148.5 -43t99 -71.5t55 -86t27 -80t6.5 -59.5q0 -23 -8 -88h-275q0 92 -22.5 136t-79.5 63l-150 -709q63 14 106.5 61.5t80.5 139.5h274q-55 -188 -192.5 -304 t-317.5 -124l-43 -209h-135l45 213q-90 14 -157.5 53t-102.5 82t-55.5 98.5t-25.5 90t-5 69.5zM455 391q0 -84 23.5 -130t78.5 -71l148 701q-76 -20 -129.5 -88t-77 -153t-33.5 -149.5t-10 -109.5z" />
<glyph unicode="&#xa3;" d="M100 164q160 94 227.5 179t67.5 192q0 41 -10 112h-182l24 113h123q-53 156 -53 219q0 41 14.5 95t56.5 125t102 128t165.5 97t234.5 40q418 0 418 -360q0 -45 -8 -113h-268q2 20 2 53q0 190 -191 191q-94 0 -163.5 -65.5t-69.5 -153.5q0 -35 24.5 -123t32.5 -133h285 l-25 -113h-250q4 -27 5 -53q0 -109 -71 -204t-239 -214q98 45 136 56.5t85 11.5q43 0 130.5 -17.5t138.5 -17.5q100 0 233 59l37 -223q-178 -92 -317 -92q-74 0 -197 30.5t-195 30.5q-102 0 -235 -57z" />
<glyph unicode="&#xa4;" d="M135 346l193 158q-23 68 -23 131q0 162 113 301l-127 162l170 139l125 -158q113 63 241 64q113 -1 199 -62l182 150l111 -141l-186 -154q20 -68 20 -123q0 -162 -115 -309l123 -156l-170 -139l-121 153q-123 -61 -221 -61q-137 0 -211 64l-192 -160zM510 676 q0 -78 49 -126t127 -48q109 0 185.5 77.5t76.5 188.5q0 76 -49 125t-127 49q-111 0 -186.5 -77t-75.5 -189z" />
<glyph unicode="&#xa5;" d="M219 369l27 123h299l22 106h-299l25 123h287l-263 721h285l174 -520l383 520h279l-547 -721h285l-27 -123h-295l-23 -106h295l-26 -123h-295l-78 -369h-287l78 369h-299z" />
<glyph unicode="&#xa6;" horiz-adv-x="573" d="M117 -410l170 797h164l-170 -797h-164zM352 696l170 797h164l-170 -797h-164z" />
<glyph unicode="&#xa7;" d="M115 -121q0 53 18 121h268q-6 -53 -6 -70q0 -113 133 -112q78 0 131.5 44t53.5 107q0 41 -17.5 59.5t-95.5 71.5l-307 205q-111 76 -111 201q0 117 56.5 197.5t203.5 173.5q-78 80 -77 196q0 156 133 277q141 131 372 131q164 0 257.5 -70t93.5 -194q0 -31 -15 -103h-260 q2 14 2 37q0 121 -127 121q-66 0 -109.5 -37t-43.5 -90q0 -61 145 -152l229 -143q141 -88 142 -232q0 -150 -70 -231.5t-196 -128.5q98 -80 98 -203q0 -35 -12.5 -85t-50.5 -119.5t-94 -126t-156.5 -96.5t-227.5 -40q-166 0 -263 79t-97 212zM449 616q-1 -63 79 -110 l256 -158q133 61 134 158q0 37 -20.5 62.5t-74.5 58.5l-260 155q-115 -59 -114 -166z" />
<glyph unicode="&#xa8;" horiz-adv-x="681" d="M291 1272l53 246h225l-53 -246h-225zM693 1272l53 246h225l-53 -246h-225z" />
<glyph unicode="&#xa9;" horiz-adv-x="1509" d="M111 575q0 180 81.5 354.5t216 303.5t313.5 209t363 80q272 0 450.5 -176.5t178.5 -444.5q0 -180 -82 -354t-216 -303t-313 -209t-366 -80q-270 0 -448 176t-178 444zM274 604q0 -217 141.5 -359.5t356.5 -142.5q301 0 539.5 236.5t238.5 535.5q0 217 -141 358.5 t-356 141.5q-301 0 -540 -236.5t-239 -533.5zM475 588q0 264 154.5 444t380.5 180q143 0 229 -71.5t86 -190.5q0 -16 -6 -67h-184q0 84 -37 121.5t-119 37.5q-92 0 -159.5 -51t-98.5 -127t-43 -135t-12 -104q0 -94 46 -143.5t130 -49.5q178 0 235 176h189 q-43 -162 -168 -254t-299 -92q-150 0 -237 87t-87 239z" />
<glyph unicode="&#xaa;" horiz-adv-x="757" d="M197 537l34 163h580l-33 -163h-581zM274 948q0 96 69 166t181 86l70 12q113 16 135 39q20 18 21 52q0 51 -91 51q-59 0 -90.5 -20.5t-46.5 -69.5h-162q51 229 330 229q109 0 171.5 -39t62.5 -108q0 -23 -6 -58l-80 -368q-2 -10 -2 -27q-1 -24 24 -55l-4 -21h-188 q-8 16 -9 33q0 12 5 33q-106 -94 -220 -95q-78 0 -124 43t-46 117zM453 989q0 -61 86 -61q63 0 107.5 40.5t58.5 114.5l10 47q-20 -8 -33 -12l-25 -4l-20 -2l-62 -12q-57 -8 -89.5 -38t-32.5 -73z" />
<glyph unicode="&#xab;" d="M276 446l50 234l407 305l-51 -240l-246 -182l168 -182l-49 -234zM713 446l49 234l407 305l-51 -240l-246 -182l168 -182l-49 -234z" />
<glyph unicode="&#xac;" horiz-adv-x="1196" d="M211 524l51 246h1032l-125 -594h-243l73 348h-788z" />
<glyph unicode="&#xad;" horiz-adv-x="681" d="M143 424l60 276h557l-60 -276h-557z" />
<glyph unicode="&#xae;" horiz-adv-x="1509" d="M113 575q0 240 137 460t363 353.5t472 133.5q272 0 450.5 -176.5t178.5 -444.5q0 -240 -137 -460t-363.5 -353t-474.5 -133q-270 0 -448 176t-178 444zM276 604q0 -217 140.5 -359.5t355.5 -142.5q197 0 378 108.5t290.5 288t109.5 375.5q0 217 -141 358.5t-356 141.5 q-197 0 -377 -108.5t-290 -287.5t-110 -374zM457 287l192 905h488q203 0 202 -182q0 -197 -198 -287q80 -37 80 -100q0 -41 -31 -224l-2 -26q0 -27 24 -43l-10 -43h-209q-10 32 -10 57q0 43 20.5 128t20.5 97q0 72 -109 72h-186l-76 -354h-196zM764 807h209q76 0 118 32.5 t42 121.5q0 37 -26 52t-87 15h-209z" />
<glyph unicode="&#xaf;" horiz-adv-x="681" d="M307 1315l35 164h614l-34 -164h-615z" />
<glyph unicode="&#xb0;" horiz-adv-x="1241" d="M492 1096q0 127 91 218t218 91q129 0 220 -91t91 -218q0 -131 -91 -221.5t-222 -90.5q-125 0 -216 92.5t-91 219.5zM621 1094q0 -72 53 -126.5t125 -54.5q78 0 131 53.5t53 129.5q0 74 -53 127t-127 53q-76 0 -129 -53.5t-53 -128.5z" />
<glyph unicode="&#xb1;" horiz-adv-x="1196" d="M102 0l52 244h991l-51 -244h-992zM248 680l51 246h373l80 370h243l-80 -370h375l-51 -246h-375l-71 -332h-244l72 332h-373z" />
<glyph unicode="&#xb2;" horiz-adv-x="716" d="M168 582q31 115 101.5 199.5t149.5 130.5t153.5 88t123.5 97.5t49 131.5q0 94 -106 94q-135 0 -154 -182h-186q25 160 119 244.5t246 84.5q129 0 200.5 -56.5t71.5 -158.5q0 -100 -62.5 -184t-140.5 -131t-164 -101.5t-116 -93.5h376l-34 -163h-627z" />
<glyph unicode="&#xb3;" horiz-adv-x="716" d="M219 774q0 31 8 74h187q-4 -16 -4 -37q0 -96 114 -96q61 0 105.5 44t44.5 105q0 51 -36 75t-120 26h-26l26 129q8 -2 21 -2q82 0 130 39.5t48 109.5q0 37 -25.5 59.5t-66.5 22.5q-59 0 -90 -34t-50 -120h-178q31 156 116 228.5t236 72.5q125 0 194 -50t69 -140 q0 -141 -146 -231q88 -55 88 -150q0 -152 -104.5 -248t-272.5 -96q-127 0 -197.5 57.5t-70.5 161.5z" />
<glyph unicode="&#xb4;" horiz-adv-x="681" d="M506 1243l209 307h258l-324 -307h-143z" />
<glyph unicode="&#xb5;" horiz-adv-x="1366" d="M-90 -397l391 1509h283l-170 -659q-8 -31 -8 -66q0 -61 38.5 -114.5t128.5 -53.5q92 0 165 61.5t102 172.5l170 659h278l-198 -770q-19 -69 -19 -100l39 -19l33 -155q-131 -72 -193 -72q-135 0 -157 92q-125 -113 -289 -113q-23 0 -42.5 2.5t-33.5 4.5t-30.5 8t-24.5 9 t-21.5 10t-17.5 9t-17 11l-12 10l-112 -436h-283z" />
<glyph unicode="&#xb6;" d="M248 891q0 94 37 196.5t102.5 194.5t170 151.5t224.5 59.5h619l-31 -150h-90l-369 -1734h-200l368 1734h-127l-368 -1734h-201l199 938q-154 8 -244 100t-90 244z" />
<glyph unicode="&#xb7;" horiz-adv-x="569" d="M293 373l45 205h215l-45 -205h-215z" />
<glyph unicode="&#xb8;" horiz-adv-x="681" d="M-27 -391l62 104q125 -61 201 -61q57 0 98 26.5t41 63.5q0 31 -24.5 49.5t-65.5 18.5q-45 0 -109 -27l139 217h103l-84 -127q49 12 88 12q61 0 96 -30.5t35 -85.5q0 -100 -84 -160t-223 -60q-121 0 -273 60z" />
<glyph unicode="&#xb9;" horiz-adv-x="507" d="M291 1174l26 124q238 0 312 154h129l-185 -870h-192l127 592h-217z" />
<glyph unicode="&#xba;" horiz-adv-x="747" d="M188 537l35 163h617l-35 -163h-617zM287 1036q0 186 112.5 321.5t294.5 135.5q127 0 199 -65.5t72 -178.5q0 -195 -115 -326.5t-299 -131.5q-121 0 -192.5 66t-71.5 179zM465 1065q0 -66 32.5 -105.5t86.5 -39.5q82 0 142 86t60 202q0 66 -32.5 106t-85.5 40 q-84 0 -143.5 -85t-59.5 -204z" />
<glyph unicode="&#xbb;" d="M211 147l51 240l246 182l-168 183l49 233l279 -299l-50 -235zM635 147l51 240l246 182l-168 183l49 233l279 -299l-50 -235z" />
<glyph unicode="&#xbc;" horiz-adv-x="1779" d="M299 1174l27 124q238 0 311 154h129l-184 -870h-193l127 592h-217zM311 -41l1190 1505h174l-1190 -1505h-174zM1124 190l33 148l445 532h221l-113 -530h94l-32 -150h-95l-39 -190h-192l41 190h-363zM1305 340h215l71 340z" />
<glyph unicode="&#xbd;" horiz-adv-x="1779" d="M311 1174l27 124q238 0 311 154h129l-184 -870h-193l127 592h-217zM322 -41l1189 1505h175l-1190 -1505h-174zM1106 0q31 115 101.5 200t149.5 131t153.5 88t123.5 97t49 131q0 94 -106 94q-135 0 -154 -182h-186q25 160 119 245t246 85q129 0 200.5 -56.5t71.5 -158.5 q0 -100 -62.5 -184t-140.5 -131.5t-164 -101.5t-116 -93h376l-34 -164h-627z" />
<glyph unicode="&#xbe;" horiz-adv-x="1779" d="M233 774q0 31 9 74h186q-4 -16 -4 -37q0 -96 115 -96q61 0 105 44t44 105q0 51 -36 75t-120 26h-26l26 129q8 -2 21 -2q82 0 130 39.5t48 109.5q0 37 -25.5 59.5t-66.5 22.5q-59 0 -90 -34t-49 -120h-178q31 156 115.5 228.5t236.5 72.5q125 0 193.5 -50t68.5 -140 q0 -141 -145 -231q88 -55 88 -150q0 -152 -104.5 -248t-272.5 -96q-127 0 -198 57.5t-71 161.5zM397 -41l1190 1505h174l-1190 -1505h-174zM1118 190l33 148l444 532h222l-113 -530h94l-33 -150h-94l-39 -190h-192l41 190h-363zM1298 340h215l72 340z" />
<glyph unicode="&#xbf;" horiz-adv-x="1251" d="M107 -53q0 63 16.5 123.5t33.5 102.5t57 87t59.5 66.5t69.5 56.5t56.5 38t49.5 30q104 66 135 104.5t51 138.5h250q-10 -109 -64.5 -192.5t-123 -136t-137 -100.5t-114.5 -110.5t-46 -140t52 -128t134 -50.5q104 0 176 75t98 210h279q-12 -59 -25.5 -104.5t-58.5 -134.5 t-102.5 -147.5t-164 -105.5t-239.5 -47q-125 0 -217 36t-138 93.5t-66.5 115.5t-20.5 120zM627 807l63 299h308l-64 -299h-307z" />
<glyph unicode="&#xc0;" horiz-adv-x="1478" d="M53 0l834 1493h354l199 -1493h-314l-36 301h-558l-165 -301h-314zM674 557h387l-72 580zM880 1892h244l92 -307h-129z" />
<glyph unicode="&#xc1;" horiz-adv-x="1478" d="M53 0l834 1493h354l199 -1493h-314l-36 301h-558l-165 -301h-314zM674 557h387l-72 580zM948 1597l209 307h258l-324 -307h-143z" />
<glyph unicode="&#xc2;" horiz-adv-x="1478" d="M53 0l834 1493h354l199 -1493h-314l-36 301h-558l-165 -301h-314zM674 557h387l-72 580zM761 1616l285 301h221l146 -301h-160l-125 199l-211 -199h-156z" />
<glyph unicode="&#xc3;" horiz-adv-x="1478" d="M53 0l834 1493h354l199 -1493h-314l-36 301h-558l-165 -301h-314zM674 557h387l-72 580zM732 1645q35 115 99 177.5t148 62.5q66 0 146 -35l102 -43q43 -20 68 -21q68 0 110 105h111q-37 -129 -109.5 -189.5t-162.5 -60.5q-55 0 -105 22l-102 52q-61 29 -90 28 q-53 0 -105 -98h-110z" />
<glyph unicode="&#xc4;" horiz-adv-x="1478" d="M53 0l834 1493h354l199 -1493h-314l-36 301h-558l-165 -301h-314zM674 557h387l-72 580zM783 1641l53 246h225l-53 -246h-225zM1185 1641l53 246h225l-53 -246h-225z" />
<glyph unicode="&#xc5;" horiz-adv-x="1478" d="M53 0l834 1493h354l199 -1493h-314l-36 301h-558l-165 -301h-314zM674 557h387l-72 580zM925 1729q0 88 70 155.5t160 67.5q63 0 105 -41t42 -104q0 -88 -69.5 -156t-159.5 -68q-63 0 -105.5 41t-42.5 105zM1026 1751q0 -29 19.5 -47t49.5 -18q41 0 74 30.5t33 69.5 q0 27 -19.5 45.5t-48.5 18.5q-41 0 -74.5 -30t-33.5 -69z" />
<glyph unicode="&#xc6;" horiz-adv-x="2048" d="M2 0l860 1493h1399l-53 -256h-752l-74 -338h695l-54 -256h-694l-82 -387h791l-56 -256h-1097l65 311h-448l-174 -311h-326zM635 567h371l143 670h-135z" />
<glyph unicode="&#xc7;" horiz-adv-x="1478" d="M219 481q0 285 112.5 522.5t313.5 376t447 138.5q238 0 385 -119t147 -312q0 -29 -8 -100h-289q0 268 -270 268q-106 0 -194.5 -42t-143.5 -111.5t-96 -148.5t-60.5 -162.5t-29 -144t-9.5 -103.5q0 -328 301 -328q147 0 252 77t150 218h293q-63 -256 -258 -405.5 t-465 -151.5l-54 -82q41 14 88 14q61 0 96.5 -30.5t35.5 -85.5q0 -100 -85 -160t-225 -60q-119 0 -272 60l61 104q129 -61 203 -61q57 0 98 26.5t41 63.5q0 31 -24.5 49.5t-65.5 18.5q-43 0 -110 -27l112 172q-217 16 -347 159.5t-130 366.5z" />
<glyph unicode="&#xc8;" horiz-adv-x="1366" d="M162 0l317 1493h1082l-56 -256h-774l-72 -338h715l-53 -256h-715l-82 -387h809l-55 -256h-1116zM880 1890h244l92 -307h-129z" />
<glyph unicode="&#xc9;" horiz-adv-x="1366" d="M162 0l317 1493h1082l-56 -256h-774l-72 -338h715l-53 -256h-715l-82 -387h809l-55 -256h-1116zM916 1612l209 307h258l-324 -307h-143z" />
<glyph unicode="&#xca;" horiz-adv-x="1366" d="M162 0l317 1493h1082l-56 -256h-774l-72 -338h715l-53 -256h-715l-82 -387h809l-55 -256h-1116zM727 1616l285 301h221l146 -301h-160l-125 199l-211 -199h-156z" />
<glyph unicode="&#xcb;" horiz-adv-x="1366" d="M162 0l317 1493h1082l-56 -256h-774l-72 -338h715l-53 -256h-715l-82 -387h809l-55 -256h-1116zM737 1641l53 246h225l-53 -246h-225zM1139 1641l53 246h225l-53 -246h-225z" />
<glyph unicode="&#xcc;" horiz-adv-x="569" d="M129 0l317 1493h308l-318 -1493h-307zM417 1896h244l92 -307h-129z" />
<glyph unicode="&#xcd;" horiz-adv-x="569" d="M129 0l317 1493h308l-318 -1493h-307zM533 1612l209 307h258l-324 -307h-143z" />
<glyph unicode="&#xce;" horiz-adv-x="569" d="M129 0l317 1493h308l-318 -1493h-307zM305 1616l285 301h221l146 -301h-160l-125 199l-211 -199h-156z" />
<glyph unicode="&#xcf;" horiz-adv-x="569" d="M129 0l317 1493h308l-318 -1493h-307zM318 1641l53 246h225l-53 -246h-225zM720 1641l53 246h225l-53 -246h-225z" />
<glyph unicode="&#xd0;" horiz-adv-x="1478" d="M150 698l34 164h156l135 631h584q279 0 404.5 -122t125.5 -390q0 -377 -229 -694q-113 -156 -254 -221.5t-365 -65.5h-583l149 698h-157zM520 256h275q133 0 217 48t149 163q53 90 88 231.5t35 262.5q0 276 -280 276h-277l-80 -375h357l-35 -164h-355z" />
<glyph unicode="&#xd1;" horiz-adv-x="1478" d="M139 0l318 1493h307l393 -1055l223 1055h291l-317 -1493h-303l-394 1071l-227 -1071h-291zM732 1645q35 115 99 177.5t148 62.5q66 0 146 -35l102 -43q43 -20 68 -21q68 0 110 105h111q-37 -129 -109.5 -189.5t-162.5 -60.5q-55 0 -105 22l-102 52q-61 29 -90 28 q-53 0 -105 -98h-110z" />
<glyph unicode="&#xd2;" horiz-adv-x="1593" d="M217 535q0 121 34 253t107.5 263t175 234.5t250 168t318.5 64.5q281 0 437.5 -155t156.5 -431q0 -127 -34 -259t-107.5 -262t-175 -231.5t-250 -164t-320.5 -62.5q-274 0 -433 156.5t-159 425.5zM522 578q0 -168 90 -265.5t246 -97.5q106 0 194.5 40t143.5 106.5 t96 142.5t60.5 155.5t29 137t9.5 98.5q0 170 -87 265t-241 95q-106 0 -195.5 -39.5t-145.5 -105.5t-97 -140.5t-62.5 -154.5t-31 -138.5t-9.5 -98.5zM880 1896h244l92 -307h-129z" />
<glyph unicode="&#xd3;" horiz-adv-x="1593" d="M217 535q0 121 34 253t107.5 263t175 234.5t250 168t318.5 64.5q281 0 437.5 -155t156.5 -431q0 -127 -34 -259t-107.5 -262t-175 -231.5t-250 -164t-320.5 -62.5q-274 0 -433 156.5t-159 425.5zM522 578q0 -168 90 -265.5t246 -97.5q106 0 194.5 40t143.5 106.5 t96 142.5t60.5 155.5t29 137t9.5 98.5q0 170 -87 265t-241 95q-106 0 -195.5 -39.5t-145.5 -105.5t-97 -140.5t-62.5 -154.5t-31 -138.5t-9.5 -98.5zM1030 1608l209 307h258l-324 -307h-143z" />
<glyph unicode="&#xd4;" horiz-adv-x="1593" d="M217 535q0 121 34 253t107.5 263t175 234.5t250 168t318.5 64.5q281 0 437.5 -155t156.5 -431q0 -127 -34 -259t-107.5 -262t-175 -231.5t-250 -164t-320.5 -62.5q-274 0 -433 156.5t-159 425.5zM522 578q0 -168 90 -265.5t246 -97.5q106 0 194.5 40t143.5 106.5 t96 142.5t60.5 155.5t29 137t9.5 98.5q0 170 -87 265t-241 95q-106 0 -195.5 -39.5t-145.5 -105.5t-97 -140.5t-62.5 -154.5t-31 -138.5t-9.5 -98.5zM825 1618l285 301h221l146 -301h-160l-125 199l-211 -199h-156z" />
<glyph unicode="&#xd5;" horiz-adv-x="1593" d="M217 535q0 121 34 253t107.5 263t175 234.5t250 168t318.5 64.5q281 0 437.5 -155t156.5 -431q0 -127 -34 -259t-107.5 -262t-175 -231.5t-250 -164t-320.5 -62.5q-274 0 -433 156.5t-159 425.5zM522 578q0 -168 90 -265.5t246 -97.5q106 0 194.5 40t143.5 106.5 t96 142.5t60.5 155.5t29 137t9.5 98.5q0 170 -87 265t-241 95q-106 0 -195.5 -39.5t-145.5 -105.5t-97 -140.5t-62.5 -154.5t-31 -138.5t-9.5 -98.5zM791 1645q35 115 99 177.5t148 62.5q66 0 146 -35l102 -43q43 -20 68 -21q68 0 110 105h111q-37 -129 -109.5 -189.5 t-162.5 -60.5q-55 0 -105 22l-102 52q-61 29 -90 28q-53 0 -105 -98h-110z" />
<glyph unicode="&#xd6;" horiz-adv-x="1593" d="M217 535q0 121 34 253t107.5 263t175 234.5t250 168t318.5 64.5q281 0 437.5 -155t156.5 -431q0 -127 -34 -259t-107.5 -262t-175 -231.5t-250 -164t-320.5 -62.5q-274 0 -433 156.5t-159 425.5zM522 578q0 -168 90 -265.5t246 -97.5q106 0 194.5 40t143.5 106.5 t96 142.5t60.5 155.5t29 137t9.5 98.5q0 170 -87 265t-241 95q-106 0 -195.5 -39.5t-145.5 -105.5t-97 -140.5t-62.5 -154.5t-31 -138.5t-9.5 -98.5zM838 1641l53 246h225l-53 -246h-225zM1240 1641l53 246h225l-53 -246h-225z" />
<glyph unicode="&#xd7;" horiz-adv-x="1196" d="M209 211l317 262l-207 262l209 174l207 -264l322 264l135 -172l-322 -264l207 -264l-209 -172l-206 264l-318 -262z" />
<glyph unicode="&#xd8;" horiz-adv-x="1593" d="M70 14l227 203q-74 141 -74 322q0 174 68.5 356t187.5 324q256 299 641 299q289 0 443 -168l206 184l86 -92l-221 -199q70 -141 70 -317q0 -174 -68.5 -353.5t-187.5 -320.5q-256 -299 -639 -299q-293 0 -438 162l-217 -195zM528 575q0 -72 13 -139l790 705 q-92 114 -264 114q-127 0 -227.5 -58t-156.5 -140t-93 -182.5t-49.5 -174t-12.5 -125.5zM602 322q90 -106 260 -107q236 0 389 215q147 201 148 469q0 68 -10 125z" />
<glyph unicode="&#xd9;" horiz-adv-x="1478" d="M244 342q0 74 22 180l207 971h307l-215 -1012q-10 -55 -10 -92q0 -82 66.5 -128t185.5 -46q139 0 219 64.5t109 201.5l215 1012h307l-215 -1012q-59 -272 -251 -400t-441 -128q-231 0 -368.5 105.5t-137.5 283.5zM880 1894h244l92 -307h-129z" />
<glyph unicode="&#xda;" horiz-adv-x="1478" d="M244 342q0 74 22 180l207 971h307l-215 -1012q-10 -55 -10 -92q0 -82 66.5 -128t185.5 -46q139 0 219 64.5t109 201.5l215 1012h307l-215 -1012q-59 -272 -251 -400t-441 -128q-231 0 -368.5 105.5t-137.5 283.5zM950 1612l209 307h258l-324 -307h-143z" />
<glyph unicode="&#xdb;" horiz-adv-x="1478" d="M244 342q0 74 22 180l207 971h307l-215 -1012q-10 -55 -10 -92q0 -82 66.5 -128t185.5 -46q139 0 219 64.5t109 201.5l215 1012h307l-215 -1012q-59 -272 -251 -400t-441 -128q-231 0 -368.5 105.5t-137.5 283.5zM772 1616l285 301h221l146 -301h-160l-125 199l-211 -199 h-156z" />
<glyph unicode="&#xdc;" horiz-adv-x="1478" d="M244 342q0 74 22 180l207 971h307l-215 -1012q-10 -55 -10 -92q0 -82 66.5 -128t185.5 -46q139 0 219 64.5t109 201.5l215 1012h307l-215 -1012q-59 -272 -251 -400t-441 -128q-231 0 -368.5 105.5t-137.5 283.5zM783 1641l53 246h225l-53 -246h-225zM1185 1641l53 246 h225l-53 -246h-225z" />
<glyph unicode="&#xdd;" horiz-adv-x="1366" d="M373 1493h342l168 -645l424 645h342l-672 -940l-119 -553h-307l119 553zM903 1612l209 307h258l-324 -307h-143z" />
<glyph unicode="&#xde;" horiz-adv-x="1366" d="M156 0l317 1493h307l-53 -246h326q123 0 211 -33.5t131 -88t62.5 -109.5t19.5 -115q0 -119 -49.5 -239.5t-131.5 -208.5q-158 -166 -389 -166h-383l-61 -287h-307zM578 543h313q152 0 216 87t64 199q0 72 -51 117t-133 45h-313z" />
<glyph unicode="&#xdf;" horiz-adv-x="1251" d="M137 0l244 1143q35 160 182.5 255t362.5 95q186 0 299.5 -83t113.5 -218q0 -119 -67.5 -214t-181.5 -136q96 -23 148 -94.5t52 -180.5q0 -47 -15 -114.5t-57 -157.5t-103.5 -164t-166 -126t-233.5 -52q-47 0 -140 14l50 230h28q160 2 252 90t92 227q0 201 -231 201h-31 l41 194q121 0 196 61.5t75 159.5q0 63 -49.5 98.5t-133.5 35.5q-172 0 -207 -164l-233 -1100h-287z" />
<glyph unicode="&#xe0;" d="M102 221q0 31 8.5 71t36 95t70.5 102.5t121 89.5t178 58l119 18q8 2 34.5 5.5t39 5.5t38 7t38 10t33 12t31.5 17.5t22.5 25t16.5 31.5t5 38q0 88 -150 88q-98 0 -150 -35t-79 -119h-268q43 201 173 292t372 91q117 0 199.5 -23.5t121.5 -63.5t55.5 -78.5t16.5 -81.5 q0 -37 -13 -93l-129 -614q-6 -29 -6 -43q0 -43 43 -92l-8 -35h-313q-14 31 -14.5 55.5t6.5 55.5q-176 -158 -342 -158q-137 0 -221.5 73.5t-84.5 194.5zM395 285q0 -102 150 -103q104 0 174.5 67.5t99.5 194.5l17 78q-25 -14 -97 -28l-135 -23q-100 -16 -154.5 -65.5 t-54.5 -120.5zM555 1550h244l92 -307h-129z" />
<glyph unicode="&#xe1;" d="M102 221q0 31 8.5 71t36 95t70.5 102.5t121 89.5t178 58l119 18q8 2 34.5 5.5t39 5.5t38 7t38 10t33 12t31.5 17.5t22.5 25t16.5 31.5t5 38q0 88 -150 88q-98 0 -150 -35t-79 -119h-268q43 201 173 292t372 91q117 0 199.5 -23.5t121.5 -63.5t55.5 -78.5t16.5 -81.5 q0 -37 -13 -93l-129 -614q-6 -29 -6 -43q0 -43 43 -92l-8 -35h-313q-14 31 -14.5 55.5t6.5 55.5q-176 -158 -342 -158q-137 0 -221.5 73.5t-84.5 194.5zM395 285q0 -102 150 -103q104 0 174.5 67.5t99.5 194.5l17 78q-25 -14 -97 -28l-135 -23q-100 -16 -154.5 -65.5 t-54.5 -120.5zM737 1245l209 307h258l-324 -307h-143z" />
<glyph unicode="&#xe2;" d="M102 221q0 31 8.5 71t36 95t70.5 102.5t121 89.5t178 58l119 18q8 2 34.5 5.5t39 5.5t38 7t38 10t33 12t31.5 17.5t22.5 25t16.5 31.5t5 38q0 88 -150 88q-98 0 -150 -35t-79 -119h-268q43 201 173 292t372 91q117 0 199.5 -23.5t121.5 -63.5t55.5 -78.5t16.5 -81.5 q0 -37 -13 -93l-129 -614q-6 -29 -6 -43q0 -43 43 -92l-8 -35h-313q-14 31 -14.5 55.5t6.5 55.5q-176 -158 -342 -158q-137 0 -221.5 73.5t-84.5 194.5zM395 285q0 -102 150 -103q104 0 174.5 67.5t99.5 194.5l17 78q-25 -14 -97 -28l-135 -23q-100 -16 -154.5 -65.5 t-54.5 -120.5zM505 1247l285 301h221l146 -301h-160l-125 199l-211 -199h-156z" />
<glyph unicode="&#xe3;" d="M102 221q0 31 8.5 71t36 95t70.5 102.5t121 89.5t178 58l119 18q8 2 34.5 5.5t39 5.5t38 7t38 10t33 12t31.5 17.5t22.5 25t16.5 31.5t5 38q0 88 -150 88q-98 0 -150 -35t-79 -119h-268q43 201 173 292t372 91q117 0 199.5 -23.5t121.5 -63.5t55.5 -78.5t16.5 -81.5 q0 -37 -13 -93l-129 -614q-6 -29 -6 -43q0 -43 43 -92l-8 -35h-313q-14 31 -14.5 55.5t6.5 55.5q-176 -158 -342 -158q-137 0 -221.5 73.5t-84.5 194.5zM395 285q0 -102 150 -103q104 0 174.5 67.5t99.5 194.5l17 78q-25 -14 -97 -28l-135 -23q-100 -16 -154.5 -65.5 t-54.5 -120.5zM453 1251q35 115 99 177.5t148 62.5q66 0 146 -35l102 -43q43 -20 68 -21q68 0 110 105h111q-37 -129 -109.5 -189.5t-162.5 -60.5q-55 0 -105 22l-102 52q-61 29 -90 28q-53 0 -105 -98h-110z" />
<glyph unicode="&#xe4;" d="M102 221q0 31 8.5 71t36 95t70.5 102.5t121 89.5t178 58l119 18q8 2 34.5 5.5t39 5.5t38 7t38 10t33 12t31.5 17.5t22.5 25t16.5 31.5t5 38q0 88 -150 88q-98 0 -150 -35t-79 -119h-268q43 201 173 292t372 91q117 0 199.5 -23.5t121.5 -63.5t55.5 -78.5t16.5 -81.5 q0 -37 -13 -93l-129 -614q-6 -29 -6 -43q0 -43 43 -92l-8 -35h-313q-14 31 -14.5 55.5t6.5 55.5q-176 -158 -342 -158q-137 0 -221.5 73.5t-84.5 194.5zM395 285q0 -102 150 -103q104 0 174.5 67.5t99.5 194.5l17 78q-25 -14 -97 -28l-135 -23q-100 -16 -154.5 -65.5 t-54.5 -120.5zM524 1268l53 246h225l-53 -246h-225zM926 1268l53 246h225l-53 -246h-225z" />
<glyph unicode="&#xe5;" d="M102 221q0 31 8.5 71t36 95t70.5 102.5t121 89.5t178 58l119 18q8 2 34.5 5.5t39 5.5t38 7t38 10t33 12t31.5 17.5t22.5 25t16.5 31.5t5 38q0 88 -150 88q-98 0 -150 -35t-79 -119h-268q43 201 173 292t372 91q117 0 199.5 -23.5t121.5 -63.5t55.5 -78.5t16.5 -81.5 q0 -37 -13 -93l-129 -614q-6 -29 -6 -43q0 -43 43 -92l-8 -35h-313q-14 31 -14.5 55.5t6.5 55.5q-176 -158 -342 -158q-137 0 -221.5 73.5t-84.5 194.5zM395 285q0 -102 150 -103q104 0 174.5 67.5t99.5 194.5l17 78q-25 -14 -97 -28l-135 -23q-100 -16 -154.5 -65.5 t-54.5 -120.5zM674 1362q0 88 70 155.5t160 67.5q63 0 105 -41t42 -104q0 -88 -69.5 -156t-159.5 -68q-63 0 -105.5 41t-42.5 105zM775 1384q0 -29 19.5 -47t49.5 -18q41 0 74 30.5t33 69.5q0 27 -19.5 45.5t-48.5 18.5q-41 0 -74.5 -30t-33.5 -69z" />
<glyph unicode="&#xe6;" horiz-adv-x="1826" d="M111 217q0 31 6 68t31.5 94t66.5 105t122 91t187 62l117 18q6 0 35 4.5t40 6.5t37.5 7t39 10t33 12t31.5 17.5t22.5 25t16.5 31.5t5 38q0 88 -149 88q-98 0 -150.5 -35t-79.5 -119h-268q37 176 129 258q141 125 420 125q231 0 330 -100q149 100 337 100 q195 0 311.5 -115.5t116.5 -289.5q0 -117 -36 -256h-742q-14 -61 -14 -105q0 -78 54 -127t143 -49q76 0 139 35t94 94h283q-82 -164 -238 -261t-340 -97q-281 0 -371 205q-109 -115 -205 -160t-237 -45q-150 0 -233.5 69.5t-83.5 194.5zM403 285q0 -102 146 -103 q106 0 177.5 66.5t100.5 193.5l17 78q-27 -12 -53 -20q-4 0 -18.5 -2t-24.5 -4l-136 -23q-100 -16 -154.5 -65.5t-54.5 -120.5zM1163 653h443v56q0 88 -45 137t-129 49q-203 0 -269 -242z" />
<glyph unicode="&#xe7;" d="M158 354q0 143 57 305t147 271q164 195 453 194q186 0 297 -98t111 -246q0 -23 -9 -88h-274q-2 102 -32.5 152.5t-135.5 50.5q-164 0 -246 -174q-76 -152 -75 -328q0 -211 182 -211q84 0 139 46t102 155h275q-49 -156 -148.5 -257t-194.5 -137t-190 -36h-26l-53 -80 q45 12 88 12q61 0 96 -30.5t35 -85.5q0 -100 -85 -160t-225 -60q-121 0 -272 60l62 106q125 -63 202 -63q57 0 98.5 26.5t41.5 63.5q0 31 -25 49.5t-66 18.5q-45 0 -110 -27l117 178q-90 16 -157 57t-99.5 84t-52 97.5t-23.5 87t-4 67.5z" />
<glyph unicode="&#xe8;" d="M131 379q0 49 10.5 112.5t35 152.5t72.5 170t115.5 152.5t174 114.5t237.5 43q195 0 314.5 -112.5t119.5 -292.5q0 -117 -36 -256h-744q-6 -57 -6 -92q0 -84 53 -136.5t141 -52.5q74 0 136.5 35t93.5 94h282q-84 -170 -232 -264t-335 -94q-193 0 -312.5 117.5 t-119.5 308.5zM467 653h451q0 57 -5.5 93t-22 74t-53.5 56.5t-96 18.5q-207 0 -274 -242zM555 1550h244l92 -307h-129z" />
<glyph unicode="&#xe9;" d="M131 379q0 49 10.5 112.5t35 152.5t72.5 170t115.5 152.5t174 114.5t237.5 43q195 0 314.5 -112.5t119.5 -292.5q0 -117 -36 -256h-744q-6 -57 -6 -92q0 -84 53 -136.5t141 -52.5q74 0 136.5 35t93.5 94h282q-84 -170 -232 -264t-335 -94q-193 0 -312.5 117.5 t-119.5 308.5zM467 653h451q0 57 -5.5 93t-22 74t-53.5 56.5t-96 18.5q-207 0 -274 -242zM686 1247l209 307h258l-324 -307h-143z" />
<glyph unicode="&#xea;" d="M131 379q0 49 10.5 112.5t35 152.5t72.5 170t115.5 152.5t174 114.5t237.5 43q195 0 314.5 -112.5t119.5 -292.5q0 -117 -36 -256h-744q-6 -57 -6 -92q0 -84 53 -136.5t141 -52.5q74 0 136.5 35t93.5 94h282q-84 -170 -232 -264t-335 -94q-193 0 -312.5 117.5 t-119.5 308.5zM467 653h451q0 57 -5.5 93t-22 74t-53.5 56.5t-96 18.5q-207 0 -274 -242zM485 1249l285 301h221l146 -301h-160l-125 199l-211 -199h-156z" />
<glyph unicode="&#xeb;" d="M131 379q0 49 10.5 112.5t35 152.5t72.5 170t115.5 152.5t174 114.5t237.5 43q195 0 314.5 -112.5t119.5 -292.5q0 -117 -36 -256h-744q-6 -57 -6 -92q0 -84 53 -136.5t141 -52.5q74 0 136.5 35t93.5 94h282q-84 -170 -232 -264t-335 -94q-193 0 -312.5 117.5 t-119.5 308.5zM467 653h451q0 57 -5.5 93t-22 74t-53.5 56.5t-96 18.5q-207 0 -274 -242zM510 1268l53 246h225l-53 -246h-225zM912 1268l53 246h225l-53 -246h-225z" />
<glyph unicode="&#xec;" horiz-adv-x="569" d="M137 0l236 1106h286l-235 -1106h-287zM329 1550h244l92 -307h-129z" />
<glyph unicode="&#xed;" horiz-adv-x="569" d="M137 0l236 1106h286l-235 -1106h-287zM451 1243l209 307h258l-324 -307h-143z" />
<glyph unicode="&#xee;" horiz-adv-x="569" d="M137 0l236 1106h286l-235 -1106h-287zM221 1247l285 301h221l146 -301h-160l-125 199l-211 -199h-156z" />
<glyph unicode="&#xef;" horiz-adv-x="569" d="M137 0l236 1106h286l-235 -1106h-287zM240 1270l53 246h225l-53 -246h-225zM642 1270l53 246h225l-53 -246h-225z" />
<glyph unicode="&#xf0;" horiz-adv-x="1251" d="M170 365q0 57 12.5 135t50 184.5t97 192.5t167 147t244.5 61q84 0 185 -55q-76 129 -199 217l-199 -92l-84 88l181 84q-59 41 -144 94l144 103q117 -53 194 -105l213 92l88 -88l-190 -84q199 -147 282.5 -291.5t83.5 -340.5q0 -322 -187 -538t-484 -216 q-213 0 -334 109.5t-121 302.5zM465 422q0 -135 62.5 -187.5t140.5 -52.5q145 0 241.5 138.5t96.5 347.5q0 117 -64.5 166t-148.5 49q-78 0 -139.5 -39t-96.5 -93.5t-56.5 -123t-28.5 -118.5t-7 -87z" />
<glyph unicode="&#xf1;" horiz-adv-x="1251" d="M129 0l236 1106h286l-37 -168q82 98 170 142t203 44q137 0 219 -73.5t82 -196.5q0 -55 -12 -113l-158 -741h-287l138 641q12 68 12 100q0 154 -152 154q-102 0 -176.5 -72.5t-103.5 -199.5l-133 -623h-287zM525 1251q35 115 99 177.5t148 62.5q66 0 146 -35l102 -43 q43 -20 68 -21q68 0 110 105h111q-37 -129 -109.5 -189.5t-162.5 -60.5q-55 0 -105 22l-102 52q-61 29 -90 28q-53 0 -105 -98h-110z" />
<glyph unicode="&#xf2;" horiz-adv-x="1251" d="M168 362q0 317 187.5 539.5t490.5 222.5q211 0 331.5 -109.5t120.5 -299.5q0 -324 -190 -543t-496 -219q-203 0 -323.5 111.5t-120.5 297.5zM461 420q0 -109 55.5 -173.5t147.5 -64.5q96 0 167.5 56.5t106.5 139.5t51.5 154.5t16.5 122.5q0 109 -55.5 174.5t-149.5 65.5 q-139 0 -239.5 -140.5t-100.5 -334.5zM634 1550h244l92 -307h-129z" />
<glyph unicode="&#xf3;" horiz-adv-x="1251" d="M168 362q0 317 187.5 539.5t490.5 222.5q211 0 331.5 -109.5t120.5 -299.5q0 -324 -190 -543t-496 -219q-203 0 -323.5 111.5t-120.5 297.5zM461 420q0 -109 55.5 -173.5t147.5 -64.5q96 0 167.5 56.5t106.5 139.5t51.5 154.5t16.5 122.5q0 109 -55.5 174.5t-149.5 65.5 q-139 0 -239.5 -140.5t-100.5 -334.5zM762 1245l209 307h258l-324 -307h-143z" />
<glyph unicode="&#xf4;" horiz-adv-x="1251" d="M168 362q0 317 187.5 539.5t490.5 222.5q211 0 331.5 -109.5t120.5 -299.5q0 -324 -190 -543t-496 -219q-203 0 -323.5 111.5t-120.5 297.5zM461 420q0 -109 55.5 -173.5t147.5 -64.5q96 0 167.5 56.5t106.5 139.5t51.5 154.5t16.5 122.5q0 109 -55.5 174.5t-149.5 65.5 q-139 0 -239.5 -140.5t-100.5 -334.5zM567 1249l285 301h221l146 -301h-160l-125 199l-211 -199h-156z" />
<glyph unicode="&#xf5;" horiz-adv-x="1251" d="M168 362q0 317 187.5 539.5t490.5 222.5q211 0 331.5 -109.5t120.5 -299.5q0 -324 -190 -543t-496 -219q-203 0 -323.5 111.5t-120.5 297.5zM461 420q0 -109 55.5 -173.5t147.5 -64.5q96 0 167.5 56.5t106.5 139.5t51.5 154.5t16.5 122.5q0 109 -55.5 174.5t-149.5 65.5 q-139 0 -239.5 -140.5t-100.5 -334.5zM508 1251q35 115 99 177.5t148 62.5q66 0 146 -35l102 -43q43 -20 68 -21q68 0 110 105h111q-37 -129 -109.5 -189.5t-162.5 -60.5q-55 0 -105 22l-102 52q-61 29 -90 28q-53 0 -105 -98h-110z" />
<glyph unicode="&#xf6;" horiz-adv-x="1251" d="M168 362q0 317 187.5 539.5t490.5 222.5q211 0 331.5 -109.5t120.5 -299.5q0 -324 -190 -543t-496 -219q-203 0 -323.5 111.5t-120.5 297.5zM461 420q0 -109 55.5 -173.5t147.5 -64.5q96 0 167.5 56.5t106.5 139.5t51.5 154.5t16.5 122.5q0 109 -55.5 174.5t-149.5 65.5 q-139 0 -239.5 -140.5t-100.5 -334.5zM572 1268l53 246h225l-53 -246h-225zM974 1268l53 246h225l-53 -246h-225z" />
<glyph unicode="&#xf7;" horiz-adv-x="1196" d="M158 352l51 246h1032l-51 -246h-1032zM496 100q0 59 48 106.5t107 47.5q45 0 74 -29.5t29 -74.5q0 -57 -48.5 -103.5t-107.5 -46.5q-45 0 -73.5 28.5t-28.5 71.5zM643 793q0 59 48.5 106t107.5 47q45 0 73.5 -29.5t28.5 -74.5q0 -57 -48 -103.5t-110 -46.5 q-43 0 -71.5 29t-28.5 72z" />
<glyph unicode="&#xf8;" horiz-adv-x="1251" d="M25 4l190 160q-43 92 -43 201q0 199 80 369.5t238.5 280t363.5 109.5q231 0 354 -129l174 146l70 -84l-186 -156q37 -90 37 -196q0 -307 -190.5 -529.5t-489.5 -222.5q-219 0 -347 121l-182 -152zM465 426q0 -29 2 -51l512 428q-57 92 -170 92q-78 0 -140.5 -39 t-99.5 -94t-61.5 -124t-33.5 -121t-9 -91zM504 264q55 -82 168 -82q78 0 139 39t98 95.5t60.5 125t33 122.5t9.5 93q0 16 -2 31z" />
<glyph unicode="&#xf9;" horiz-adv-x="1251" d="M180 223q0 55 13 113l163 770h287l-143 -670q-12 -72 -13 -100q0 -154 156 -154q100 0 174 74t101 199l139 651h286l-235 -1106h-287l31 139q-82 -98 -170 -142t-203 -44q-135 0 -217 73.5t-82 196.5zM698 1550h244l92 -307h-129z" />
<glyph unicode="&#xfa;" horiz-adv-x="1251" d="M180 223q0 55 13 113l163 770h287l-143 -670q-12 -72 -13 -100q0 -154 156 -154q100 0 174 74t101 199l139 651h286l-235 -1106h-287l31 139q-82 -98 -170 -142t-203 -44q-135 0 -217 73.5t-82 196.5zM739 1245l209 307h258l-324 -307h-143z" />
<glyph unicode="&#xfb;" horiz-adv-x="1251" d="M180 223q0 55 13 113l163 770h287l-143 -670q-12 -72 -13 -100q0 -154 156 -154q100 0 174 74t101 199l139 651h286l-235 -1106h-287l31 139q-82 -98 -170 -142t-203 -44q-135 0 -217 73.5t-82 196.5zM544 1249l285 301h221l146 -301h-160l-125 199l-211 -199h-156z" />
<glyph unicode="&#xfc;" horiz-adv-x="1251" d="M180 223q0 55 13 113l163 770h287l-143 -670q-12 -72 -13 -100q0 -154 156 -154q100 0 174 74t101 199l139 651h286l-235 -1106h-287l31 139q-82 -98 -170 -142t-203 -44q-135 0 -217 73.5t-82 196.5zM572 1268l53 246h225l-53 -246h-225zM974 1268l53 246h225l-53 -246 h-225z" />
<glyph unicode="&#xfd;" d="M76 -440l47 223q23 -4 57 -4q106 0 169 51t63 139q-27 219 -83.5 613.5t-74.5 523.5h315l74 -805l399 805h295l-733 -1307q-51 -96 -90 -135q-117 -113 -348 -113q-55 0 -90 9zM692 1243l209 307h258l-324 -307h-143z" />
<glyph unicode="&#xfe;" horiz-adv-x="1251" d="M23 -446l411 1939h287l-117 -551q141 182 346 182q162 0 258.5 -114.5t96.5 -307.5q0 -309 -176.5 -529t-423.5 -220q-209 0 -273 178l-123 -577h-286zM504 414q0 -104 49 -168t131 -64q133 0 230.5 143.5t97.5 336.5q0 106 -49.5 169.5t-131.5 63.5q-131 0 -229 -144.5 t-98 -336.5z" />
<glyph unicode="&#xff;" d="M76 -440l47 223q23 -4 57 -4q106 0 169 51t63 139q-27 219 -83.5 613.5t-74.5 523.5h315l74 -805l399 805h295l-733 -1307q-51 -96 -90 -135q-117 -113 -348 -113q-55 0 -90 9zM524 1272l53 246h225l-53 -246h-225zM926 1272l53 246h225l-53 -246h-225z" />
<glyph unicode="&#x152;" horiz-adv-x="2048" d="M184 502q0 203 79 413.5t208 352.5q225 250 516 250q100 0 168 -30t125 -102l23 107h964l-55 -256h-668l-71 -338h610l-55 -256h-611l-82 -387h707l-53 -256h-1004l25 121q-86 -92 -163 -130t-179 -38q-217 0 -350.5 150.5t-133.5 398.5zM489 561q0 -164 78 -255t217 -91 q154 0 267 150l157 741q-55 149 -221 149q-113 0 -204 -57t-144 -139t-88 -182.5t-48.5 -179.5t-13.5 -136z" />
<glyph unicode="&#x153;" horiz-adv-x="1970" d="M168 360q0 311 188.5 537.5t491.5 226.5q121 0 218 -38.5t151 -108.5q151 147 399 147q195 0 310.5 -115.5t115.5 -289.5q0 -117 -37 -256h-741q-14 -61 -15 -107q0 -78 54.5 -126t142.5 -48q76 0 139.5 35t93.5 94h283q-82 -164 -237.5 -261t-338.5 -97q-113 0 -207 41 t-137 108q-170 -150 -430 -149q-207 0 -325.5 109.5t-118.5 297.5zM461 420q0 -109 55.5 -173.5t147.5 -64.5q96 0 167.5 56.5t106.5 139.5t51.5 154.5t16.5 122.5q0 109 -55.5 174.5t-149.5 65.5q-139 0 -239.5 -140.5t-100.5 -334.5zM1307 653h442v58q0 88 -46 136 t-128 48q-203 0 -268 -242z" />
<glyph unicode="&#x178;" horiz-adv-x="1366" d="M373 1493h342l168 -645l424 645h342l-672 -940l-119 -553h-307l119 553zM729 1641l53 246h225l-53 -246h-225zM1131 1641l53 246h225l-53 -246h-225z" />
<glyph unicode="&#x2c6;" horiz-adv-x="681" d="M276 1249l285 301h221l146 -301h-160l-125 199l-211 -199h-156z" />
<glyph unicode="&#x2dc;" horiz-adv-x="681" d="M240 1278q35 115 99 177.5t148 62.5q66 0 146 -35l102 -43q43 -20 68 -21q68 0 110 105h111q-37 -129 -109.5 -189.5t-162.5 -60.5q-55 0 -105 22l-102 52q-61 29 -90 28q-53 0 -105 -98h-110z" />
<glyph unicode="&#x2000;" horiz-adv-x="976" />
<glyph unicode="&#x2001;" horiz-adv-x="1952" />
<glyph unicode="&#x2002;" horiz-adv-x="976" />
<glyph unicode="&#x2003;" horiz-adv-x="1952" />
<glyph unicode="&#x2004;" horiz-adv-x="650" />
<glyph unicode="&#x2005;" horiz-adv-x="488" />
<glyph unicode="&#x2006;" horiz-adv-x="325" />
<glyph unicode="&#x2007;" horiz-adv-x="325" />
<glyph unicode="&#x2008;" horiz-adv-x="244" />
<glyph unicode="&#x2009;" horiz-adv-x="390" />
<glyph unicode="&#x200a;" horiz-adv-x="108" />
<glyph unicode="&#x2010;" horiz-adv-x="681" d="M143 424l60 276h557l-60 -276h-557z" />
<glyph unicode="&#x2011;" horiz-adv-x="681" d="M143 424l60 276h557l-60 -276h-557z" />
<glyph unicode="&#x2012;" horiz-adv-x="681" d="M143 424l60 276h557l-60 -276h-557z" />
<glyph unicode="&#x2013;" d="M72 424l45 213h1161l-45 -213h-1161z" />
<glyph unicode="&#x2014;" horiz-adv-x="2048" d="M76 424l45 213h2070l-45 -213h-2070z" />
<glyph unicode="&#x2018;" horiz-adv-x="569" d="M340 961l53 251q18 82 56 139.5t89.5 86t96.5 41t94 14.5l-18 -94q-59 -10 -99.5 -30.5t-61 -49.5t-28.5 -50.5t-14 -51.5h164l-56 -256h-276z" />
<glyph unicode="&#x2019;" horiz-adv-x="569" d="M340 961l18 94q59 10 99.5 30.5t61 49t28.5 50t14 52.5h-164l56 256h276l-53 -252q-18 -82 -56 -139.5t-89.5 -86t-96.5 -40.5t-94 -14z" />
<glyph unicode="&#x201a;" horiz-adv-x="569" d="M76 -276l18 94q59 10 99 30.5t60.5 49t29 50t14.5 52.5h-164l55 256h277l-53 -252q-18 -82 -56.5 -139.5t-89.5 -86t-96 -40.5t-94 -14z" />
<glyph unicode="&#x201c;" horiz-adv-x="1024" d="M348 961l53 251q18 82 56 139.5t89.5 86t96.5 41t94 14.5l-18 -94q-59 -10 -99.5 -30.5t-61 -49.5t-28.5 -50.5t-14 -51.5h164l-56 -256h-276zM815 961l53 251q18 82 56 139.5t89.5 86t96.5 41t94 14.5l-18 -94q-59 -10 -99.5 -30.5t-61 -49.5t-28.5 -50.5t-14 -51.5h164 l-56 -256h-276z" />
<glyph unicode="&#x201d;" horiz-adv-x="1024" d="M352 961l18 94q59 10 99.5 30.5t61 49t28.5 50t14 52.5h-164l56 256h276l-53 -252q-18 -82 -56 -139.5t-89.5 -86t-96.5 -40.5t-94 -14zM829 961l18 94q59 10 99.5 30.5t61 49t28.5 50t14 52.5h-164l56 256h276l-53 -252q-18 -82 -56 -139.5t-89.5 -86t-96.5 -40.5 t-94 -14z" />
<glyph unicode="&#x201e;" horiz-adv-x="1024" d="M76 -276l18 94q59 10 99 30.5t60.5 49t29 50t14.5 52.5h-164l55 256h277l-53 -252q-18 -82 -56.5 -139.5t-89.5 -86t-96 -40.5t-94 -14zM557 -276l18 94q59 10 99 30.5t60.5 49t29 50t14.5 52.5h-164l55 256h277l-53 -252q-18 -82 -56.5 -139.5t-89.5 -86t-96 -40.5 t-94 -14z" />
<glyph unicode="&#x2022;" horiz-adv-x="716" d="M227 571q0 119 91 209t210 90q94 0 159 -61t65 -152q0 -115 -94.5 -207t-213.5 -92q-94 0 -155.5 60.5t-61.5 152.5z" />
<glyph unicode="&#x2026;" horiz-adv-x="2048" d="M188 0l64 299h307l-64 -299h-307zM870 0l64 299h307l-64 -299h-307zM1552 0l64 299h307l-64 -299h-307z" />
<glyph unicode="&#x202f;" horiz-adv-x="390" />
<glyph unicode="&#x2039;" horiz-adv-x="681" d="M262 446l49 234l408 305l-51 -240l-246 -182l168 -182l-49 -234z" />
<glyph unicode="&#x203a;" horiz-adv-x="681" d="M197 147l51 240l246 182l-168 183l49 233l278 -299l-49 -235z" />
<glyph unicode="&#x205f;" horiz-adv-x="488" />
<glyph unicode="&#x20ac;" horiz-adv-x="1310" d="M182 512l80 139h90q4 59 27 140h-137l80 139h98q250 584 799 583q113 0 179 -16t140 -78l-145 -254q-49 57 -102.5 73.5t-131.5 16.5q-135 0 -245.5 -89t-180.5 -236h527l-82 -139h-490q-31 -92 -31 -140h441l-80 -139h-369q10 -143 80 -222t195 -79q51 0 87 5t99.5 31.5 t136.5 80.5l-65 -305q-82 -33 -146.5 -49.5t-95.5 -18.5t-84 -2q-63 0 -125.5 12t-135.5 49t-127 94.5t-91 157t-37 228.5v18h-158z" />
<glyph unicode="&#x2122;" horiz-adv-x="2048" d="M436 1329l35 164h748l-35 -164h-273l-163 -770h-195l164 770h-281zM1118 559l199 934h282l23 -719l324 719h280l-198 -934h-187l152 715l-322 -715h-192l-21 715l-153 -715h-187z" />
<glyph unicode="&#x25fc;" horiz-adv-x="1105" d="M0 0v1106h1106v-1106h-1106z" />
<glyph unicode="&#xfb01;" horiz-adv-x="1179" d="M184 0l191 893h-156l39 190h156l28 134q59 276 342 276q84 0 162 -6l-45 -215q-35 6 -80 6q-78 0 -96 -86l-25 -109h564l-230 -1083h-286l190 893h-276l-191 -893h-287zM1010 1237l55 256h287l-56 -256h-286z" />
<glyph unicode="&#xfb02;" horiz-adv-x="1234" d="M184 0l191 893h-156l39 190h156l28 134q59 276 342 276q84 0 162 -6l-45 -215q-35 6 -80 6q-78 0 -96 -86l-25 -109h332l88 410h287l-317 -1493h-287l190 893h-331l-191 -893h-287z" />
<glyph unicode="&#xfb03;" horiz-adv-x="1738" d="M184 0l191 893h-156l39 190h156l28 134q59 276 342 276q84 0 162 -6l-45 -215q-35 6 -80 6q-78 0 -96 -86l-25 -109h275l29 134q59 276 342 276q84 0 161 -6l-45 -215q-35 6 -80 6q-78 0 -96 -86l-24 -109h561l-230 -1083h-286l190 893h-274l-191 -893h-287l191 893h-274 l-191 -893h-287zM1569 1237l55 256h287l-56 -256h-286z" />
<glyph unicode="&#xfb04;" horiz-adv-x="1738" d="M184 0l191 893h-156l39 190h156l28 134q59 276 342 276q84 0 162 -6l-45 -215q-35 6 -80 6q-78 0 -96 -86l-25 -109h275l29 134q59 276 342 276q84 0 161 -6l-45 -215q-35 6 -80 6q-78 0 -96 -86l-24 -109h274l88 410h287l-318 -1493h-286l190 893h-274l-191 -893h-287 l191 893h-274l-191 -893h-287z" />
</font>
</defs>
</svg>
